<svg width="109" height="109" viewBox="0 0 109 109" fill="none" xmlns="http://www.w3.org/2000/svg">
<path d="M109 54.5C109 84.5995 84.5995 109 54.5 109C24.4005 109 0 84.5995 0 54.5C0 24.4005 24.4005 0 54.5 0C84.5995 0 109 24.4005 109 54.5Z" fill="#D9D9D9"/>
<path d="M55.1157 27.2051C45.4355 27.1797 36.9169 32.188 32.0483 39.7544C31.8325 40.0908 32.0737 40.5351 32.4736 40.5351H36.936C37.2407 40.5351 37.5263 40.4018 37.7167 40.167C38.1611 39.6274 38.6372 39.1069 39.1386 38.6118C41.208 36.5488 43.6137 34.9238 46.2924 33.7939C49.06 32.626 52.0053 32.0293 55.0458 32.0293C58.0864 32.0293 61.0317 32.6196 63.7993 33.7939C66.478 34.9238 68.8837 36.5488 70.9531 38.6118C73.0224 40.6748 74.6411 43.0805 75.7773 45.7529C76.9516 48.5205 77.5419 51.4594 77.5419 54.5C77.5419 57.5405 76.9453 60.4795 75.7773 63.247C74.6474 65.9194 73.0224 68.3252 70.9531 70.3882C68.8837 72.4511 66.478 74.0761 63.7993 75.206C61.0295 76.3759 58.0525 76.976 55.0458 76.9707C52.0053 76.9707 49.06 76.374 46.2924 75.206C43.619 74.0773 41.1896 72.4412 39.1386 70.3882C38.6372 69.8867 38.1674 69.3662 37.7167 68.833C37.5263 68.5981 37.2343 68.4648 36.936 68.4648H32.4736C32.0737 68.4648 31.8261 68.9092 32.0483 69.2456C36.9106 76.7929 45.3911 81.7949 55.0458 81.7949C70.039 81.7949 82.2138 69.728 82.3662 54.7793C82.5185 39.5893 70.3247 27.2431 55.1157 27.2051ZM47.0745 61.6093V56.7851H27.1428C26.8635 56.7851 26.635 56.5566 26.635 56.2773V52.7226C26.635 52.4433 26.8635 52.2148 27.1428 52.2148H47.0745V47.3906C47.0745 46.9653 47.5696 46.7241 47.8997 46.9907L56.907 54.1001C56.9677 54.1476 57.0168 54.2083 57.0505 54.2776C57.0843 54.3468 57.1018 54.4229 57.1018 54.5C57.1018 54.577 57.0843 54.6531 57.0505 54.7224C57.0168 54.7917 56.9677 54.8524 56.907 54.8999L47.8997 62.0093C47.5696 62.2695 47.0745 62.0346 47.0745 61.6093Z" fill="black"/>
</svg>
