<svg width="109" height="109" viewBox="0 0 109 109" fill="none" xmlns="http://www.w3.org/2000/svg">
<path d="M109 54.5C109 84.5995 84.5995 109 54.5 109C24.4005 109 0 84.5995 0 54.5C0 24.4005 24.4005 0 54.5 0C84.5995 0 109 24.4005 109 54.5Z" fill="#D9D9D9"/>
<path fill-rule="evenodd" clip-rule="evenodd" d="M53.2812 30.9479C40.2971 30.9479 29.7291 41.5159 29.7291 54.5C29.7291 67.484 40.2971 78.052 53.2812 78.052C66.2653 78.052 76.8333 67.484 76.8333 54.5C76.8333 41.5159 66.2653 30.9479 53.2812 30.9479ZM26.7291 54.5C26.7291 39.859 38.6403 27.9479 53.2812 27.9479C67.9221 27.9479 79.8333 39.859 79.8333 54.5C79.8333 69.1409 67.9221 81.052 53.2812 81.052C38.6403 81.052 26.7291 69.1409 26.7291 54.5Z" fill="black"/>
<path fill-rule="evenodd" clip-rule="evenodd" d="M76.7278 31.6387C74.8884 32.3231 72.4361 33.6126 69.3994 35.5814C68.7043 36.0321 67.7754 35.834 67.3247 35.1389C66.8741 34.4437 67.0722 33.5149 67.7673 33.0642C70.892 31.0383 73.5518 29.6195 75.6817 28.827C76.7454 28.4312 77.7308 28.1711 78.6094 28.0899C79.4707 28.0103 80.3808 28.0889 81.156 28.5425C81.9994 29.036 82.4618 29.8414 82.6041 30.7381C82.7368 31.5747 82.5971 32.4887 82.3213 33.4037C81.7675 35.2408 80.5128 37.5675 78.6215 40.3185C71.0546 51.3249 54.7934 67.0334 42.316 75.1231C39.1913 77.149 36.5316 78.5679 34.4017 79.3604C33.3379 79.7561 32.3525 80.0162 31.4739 80.0975C30.6126 80.1771 29.7026 80.0984 28.9274 79.6448C28.084 79.1514 27.6215 78.3459 27.4793 77.4493C27.3465 76.6126 27.4862 75.6987 27.7621 74.7836C28.3158 72.9466 29.5706 70.6198 31.4619 67.8689C31.9312 67.1862 32.8651 67.0133 33.5477 67.4826C34.2304 67.9519 34.4033 68.8858 33.934 69.5685C32.1013 72.2342 31.054 74.2577 30.6344 75.6495C30.4236 76.3488 30.4089 76.769 30.4422 76.9792C30.4487 77.0202 30.4562 77.0478 30.4619 77.0647C30.5245 77.0907 30.7334 77.1531 31.1977 77.1102C31.7209 77.0618 32.4345 76.8913 33.3555 76.5487C35.195 75.8643 37.6472 74.5748 40.684 72.6059C52.8525 64.7164 68.8205 49.2791 76.1494 38.6189C77.982 35.9532 79.0294 33.9297 79.4489 32.5379C79.6597 31.8385 79.6745 31.4184 79.6411 31.2082C79.6346 31.1671 79.6271 31.1396 79.6215 31.1226C79.5589 31.0966 79.3499 31.0342 78.8856 31.0771C78.3624 31.1255 77.6488 31.296 76.7278 31.6387Z" fill="black"/>
<path fill-rule="evenodd" clip-rule="evenodd" d="M48.2589 28.4601C48.8302 28.2332 49.4822 28.3779 49.9039 28.8252L60.8237 40.4068C61.0172 40.4015 61.2119 40.4337 61.3966 40.5038L65.3237 41.9934C65.6843 42.1302 65.9784 42.4007 66.1449 42.7487L67.6345 45.8632C67.6931 45.9859 67.7348 46.1159 67.7584 46.2498L68.1647 48.5518C68.2799 49.2046 67.953 49.8556 67.3606 50.153C66.7682 50.4505 66.0509 50.3238 65.5961 49.8415L60.0538 43.9633L57.5896 45.1529C57.1811 45.3501 56.7053 45.3519 56.2954 45.1577L51.1495 42.7202C50.9244 42.6136 50.7294 42.4525 50.5821 42.2516L47.6029 38.1891C47.4142 37.9319 47.3125 37.6211 47.3125 37.3021V29.8542C47.3125 29.2395 47.6876 28.6869 48.2589 28.4601ZM57.8954 41.674L50.3125 33.6316V36.811L52.7768 40.1715L56.9314 42.1394L57.8954 41.674ZM38.3854 42.7292C37.318 42.7292 36.5 43.5472 36.5 44.6146C36.5 45.682 37.318 46.5 38.3854 46.5C39.4528 46.5 40.2708 45.682 40.2708 44.6146C40.2708 43.5472 39.4528 42.7292 38.3854 42.7292ZM33.5 44.6146C33.5 41.8903 35.6612 39.7292 38.3854 39.7292C41.1097 39.7292 43.2708 41.8903 43.2708 44.6146C43.2708 47.1758 41.3607 49.2392 38.8683 49.4771C38.925 49.5028 38.9803 49.532 39.0339 49.5649L43.2318 52.1378C43.4171 52.2513 43.5755 52.4038 43.696 52.5846L46.4043 56.6471C46.4841 56.7668 46.5462 56.8973 46.5889 57.0346L47.5643 60.1776L52.1894 61.4495C52.9723 61.6648 53.4417 62.464 53.2486 63.2526C53.0555 64.0412 52.27 64.5331 51.4762 64.3623L28.1846 59.3519C27.6936 59.2463 27.2881 58.902 27.1042 58.4347C26.9203 57.9673 26.9825 57.439 27.2698 57.0272L31.3323 51.2042C31.5496 50.8928 31.8769 50.6754 32.2482 50.5958L37.6274 49.4431C35.2709 49.0853 33.5 47.0807 33.5 44.6146ZM44.2897 59.7477L43.7879 58.1308L41.3828 54.5232L37.9777 52.4362L33.4546 53.4054L31.0211 56.8934L44.2897 59.7477ZM77.5501 44.1856C78.1551 44.5958 78.3764 45.3823 78.0739 46.0478L76.0426 50.5166C75.9566 50.7058 75.8322 50.8751 75.6773 51.0137L73.1044 53.3158C72.8293 53.5619 72.4732 53.6979 72.1042 53.6979H70.2083C69.6072 53.6979 69.0641 53.3391 68.8285 52.7861C68.5928 52.2331 68.71 51.5928 69.1263 51.1591L75.6263 44.3883C76.1325 43.861 76.9451 43.7753 77.5501 44.1856ZM62.4664 51.5894C62.3069 50.3965 61.2271 49.5514 60.0165 49.6321L60.0102 49.6325C58.7336 49.7123 57.8082 50.8339 57.8925 52.0982L57.8929 52.1044C57.9619 53.2076 58.8088 54.0485 59.8536 54.2022L62.4664 51.5894ZM59.8198 46.6386C62.6169 46.4536 65.2853 48.5071 65.4763 51.5627C65.4782 51.5938 65.4792 51.625 65.4792 51.6563V52.1979C65.4792 52.5958 65.3211 52.9773 65.0398 53.2586L61.519 56.7794C61.2621 57.0363 60.9207 57.1913 60.5581 57.2154C57.7609 57.4019 55.0917 55.3496 54.899 52.2948C54.7141 49.4986 56.766 46.8313 59.8198 46.6386ZM78.8131 60.6446C79.1111 61.1503 79.0869 61.7834 78.7509 62.2647L69.678 75.2647C69.3617 75.718 68.8217 75.9605 68.2728 75.896C67.7239 75.8315 67.2549 75.4703 67.0523 74.9561L65.6032 71.2775L64.0034 71.0109C63.2312 70.8821 62.6878 70.1812 62.7556 69.4013L63.0265 66.2867C63.066 65.8328 63.3096 65.4214 63.6888 65.1686L70.1888 60.8353C70.3912 60.7003 70.6235 60.6166 70.8654 60.5914L77.3654 59.9143C77.9493 59.8535 78.515 60.1389 78.8131 60.6446ZM71.5447 63.5369L65.9527 67.2648L65.8645 68.2797L66.9341 68.4579C67.4538 68.5445 67.89 68.8975 68.0831 69.3877L68.8185 71.2544L74.4132 63.2381L71.5447 63.5369ZM55.8966 64.826C56.7003 64.6251 57.5147 65.1138 57.7156 65.9175L58.5281 69.1675C58.6295 69.5729 58.5571 70.0023 58.3284 70.3521L56.0263 73.873C55.8696 74.1127 55.6475 74.3025 55.3864 74.42L49.9697 76.8575C49.8481 76.9122 49.7198 76.9504 49.5881 76.9712L41.8694 78.19C41.0511 78.3192 40.283 77.7606 40.1538 76.9423C40.0246 76.124 40.5832 75.3559 41.4015 75.2267L48.9218 74.0393L53.7554 71.8642L55.4587 69.2591L54.8052 66.6451C54.6043 65.8414 55.0929 65.027 55.8966 64.826Z" fill="black"/>
</svg>
