<svg width="109" height="109" viewBox="0 0 109 109" fill="none" xmlns="http://www.w3.org/2000/svg">
<circle cx="54.5" cy="54.5" r="54.5" fill="#D9D9D9"/>
<path d="M78.125 43.7499C78.5781 43.75 79.0159 43.914 79.3573 44.2119C79.6988 44.5097 79.9209 44.9211 79.9825 45.3699L80 45.6249V66.8749C80.0001 68.9503 79.2061 70.947 77.7808 72.4555C76.3555 73.964 74.407 74.8699 72.335 74.9874L71.875 74.9999H40.1525L41.9525 76.7999C42.2697 77.1177 42.4623 77.5388 42.4953 77.9865C42.5283 78.4343 42.3996 78.8791 42.1325 79.2399L41.95 79.4499C41.6325 79.7675 41.2116 79.9606 40.7639 79.994C40.3161 80.0275 39.8712 79.8992 39.51 79.6324L39.3 79.4499L34.3 74.4499L34.14 74.2699C34.1341 74.2616 34.1283 74.2533 34.1225 74.2449L34.2975 74.4499C34.0123 74.1625 33.8275 73.7908 33.7703 73.39C33.7131 72.9892 33.7866 72.5806 33.98 72.2249C34.0666 72.0692 34.1743 71.9262 34.3 71.7999L39.3 66.7999C39.635 66.4675 40.083 66.2737 40.5547 66.2571C41.0263 66.2405 41.4868 66.4023 41.8444 66.7103C42.2019 67.0183 42.4302 67.4499 42.4836 67.9187C42.537 68.3876 42.4116 68.8594 42.1325 69.2399L41.95 69.4499L40.15 71.2499H71.875C72.9734 71.2499 74.0315 70.8366 74.8393 70.0923C75.647 69.348 76.1452 68.3271 76.235 67.2324L76.25 66.8749V45.6249C76.25 45.1277 76.4475 44.6507 76.7992 44.2991C77.1508 43.9475 77.6277 43.7499 78.125 43.7499ZM70.49 30.3674L70.7 30.5499L75.7 35.5499C75.7639 35.6131 75.8233 35.6808 75.8775 35.7524L75.7025 35.5499C76.0507 35.9004 76.247 36.3739 76.2489 36.8679C76.2507 37.3619 76.058 37.8368 75.7125 38.1899L75.7 38.1999L70.7 43.1999C70.365 43.5323 69.917 43.7262 69.4453 43.7428C68.9737 43.7594 68.5132 43.5975 68.1556 43.2895C67.7981 42.9815 67.5698 42.55 67.5164 42.0811C67.463 41.6122 67.5884 41.1405 67.8675 40.7599L68.05 40.5499L69.845 38.7499H38.125C37.027 38.75 35.9692 39.1629 35.1615 39.9066C34.3538 40.6504 33.8553 41.6707 33.765 42.7649L33.75 43.1249V64.3749C33.7499 64.85 33.5694 65.3073 33.2451 65.6544C32.9207 66.0015 32.4768 66.2126 32.0028 66.245C31.5288 66.2774 31.0603 66.1287 30.6918 65.8289C30.3232 65.5291 30.0823 65.1006 30.0175 64.6299L30 64.3749V43.1249C29.9999 41.0496 30.7939 39.0529 32.2192 37.5444C33.6445 36.0359 35.593 35.1299 37.665 35.0124L38.125 34.9999H69.8475L68.0475 33.1999C67.7303 32.8822 67.5377 32.4611 67.5047 32.0133C67.4717 31.5656 67.6004 31.1208 67.8675 30.7599L68.05 30.5499C68.3675 30.2324 68.7884 30.0393 69.2361 30.0058C69.6839 29.9723 70.1288 30.1007 70.49 30.3674ZM55 44.9999C57.6522 44.9999 60.1957 46.0535 62.0711 47.9289C63.9464 49.8042 65 52.3478 65 54.9999C65 57.6521 63.9464 60.1956 62.0711 62.071C60.1957 63.9464 57.6522 64.9999 55 64.9999C52.3478 64.9999 49.8043 63.9464 47.9289 62.071C46.0536 60.1956 45 57.6521 45 54.9999C45 52.3478 46.0536 49.8042 47.9289 47.9289C49.8043 46.0535 52.3478 44.9999 55 44.9999Z" fill="black"/>
</svg>
